<?xml version="1.0" encoding="utf-8" standalone="no"?>
<!DOCTYPE svg PUBLIC "-//W3C//DTD SVG 1.1//EN"
  "http://www.w3.org/Graphics/SVG/1.1/DTD/svg11.dtd">
<svg xmlns:xlink="http://www.w3.org/1999/xlink" width="734.4pt" height="518.4pt" viewBox="0 0 734.4 518.4" xmlns="http://www.w3.org/2000/svg" version="1.1">
 <metadata>
  <rdf:RDF xmlns:dc="http://purl.org/dc/elements/1.1/" xmlns:cc="http://creativecommons.org/ns#" xmlns:rdf="http://www.w3.org/1999/02/22-rdf-syntax-ns#">
   <cc:Work>
    <dc:type rdf:resource="http://purl.org/dc/dcmitype/StillImage"/>
    <dc:date>2026-08-08T12:16:45.292906</dc:date>
    <dc:format>image/svg+xml</dc:format>
    <dc:creator>
     <cc:Agent>
      <dc:title>Matplotlib v3.11.1, https://matplotlib.org/</dc:title>
     </cc:Agent>
    </dc:creator>
   </cc:Work>
  </rdf:RDF>
 </metadata>
 <defs>
  <style type="text/css">*{stroke-linejoin: round; stroke-linecap: butt}</style>
 </defs>
 <g id="figure_1">
  <g id="patch_1">
   <path d="M 0 518.4 
L 734.4 518.4 
L 734.4 0 
L 0 0 
z
" style="fill: #ffffff"/>
  </g>
  <g id="axes_1">
   <g id="patch_2">
    <path d="M 74.88 501.12 
L 169.92 501.12 
Q 177.12 501.12 177.12 493.92 
L 177.12 463.68 
Q 177.12 456.48 169.92 456.48 
L 74.88 456.48 
Q 67.68 456.48 67.68 463.68 
L 67.68 493.92 
Q 67.68 501.12 74.88 501.12 
z
" clip-path="url(#pf45f0dfc8e)" style="fill: #fbe5d6; stroke: #c55a11; stroke-width: 1.4; stroke-linejoin: miter"/>
   </g>
   <g id="patch_3">
    <path d="M 197.28 501.12 
L 292.32 501.12 
Q 299.52 501.12 299.52 493.92 
L 299.52 463.68 
Q 299.52 456.48 292.32 456.48 
L 197.28 456.48 
Q 190.08 456.48 190.08 463.68 
L 190.08 493.92 
Q 190.08 501.12 197.28 501.12 
z
" clip-path="url(#pf45f0dfc8e)" style="fill: #fbe5d6; stroke: #c55a11; stroke-width: 1.4; stroke-linejoin: miter"/>
   </g>
   <g id="patch_4">
    <path d="M 319.68 501.12 
L 414.72 501.12 
Q 421.92 501.12 421.92 493.92 
L 421.92 463.68 
Q 421.92 456.48 414.72 456.48 
L 319.68 456.48 
Q 312.48 456.48 312.48 463.68 
L 312.48 493.92 
Q 312.48 501.12 319.68 501.12 
z
" clip-path="url(#pf45f0dfc8e)" style="fill: #fbe5d6; stroke: #c55a11; stroke-width: 1.4; stroke-linejoin: miter"/>
   </g>
   <g id="patch_5">
    <path d="M 442.08 501.12 
L 537.12 501.12 
Q 544.32 501.12 544.32 493.92 
L 544.32 463.68 
Q 544.32 456.48 537.12 456.48 
L 442.08 456.48 
Q 434.88 456.48 434.88 463.68 
L 434.88 493.92 
Q 434.88 501.12 442.08 501.12 
z
" clip-path="url(#pf45f0dfc8e)" style="fill: #fbe5d6; stroke: #c55a11; stroke-width: 1.4; stroke-linejoin: miter"/>
   </g>
   <g id="patch_6">
    <path d="M 564.48 501.12 
L 659.52 501.12 
Q 666.72 501.12 666.72 493.92 
L 666.72 463.68 
Q 666.72 456.48 659.52 456.48 
L 564.48 456.48 
Q 557.28 456.48 557.28 463.68 
L 557.28 493.92 
Q 557.28 501.12 564.48 501.12 
z
" clip-path="url(#pf45f0dfc8e)" style="fill: #fbe5d6; stroke: #c55a11; stroke-width: 1.4; stroke-linejoin: miter"/>
   </g>
   <g id="patch_7">
    <path d="M 82.08 437.76 
L 652.32 437.76 
Q 659.52 437.76 659.52 430.56 
L 659.52 397.44 
Q 659.52 390.24 652.32 390.24 
L 82.08 390.24 
Q 74.88 390.24 74.88 397.44 
L 74.88 430.56 
Q 74.88 437.76 82.08 437.76 
z
" clip-path="url(#pf45f0dfc8e)" style="fill: #deebf7; stroke: #2f5597; stroke-width: 1.4; stroke-linejoin: miter"/>
   </g>
   <g id="patch_8">
    <path d="M 82.08 371.52 
L 357.12 371.52 
Q 364.32 371.52 364.32 364.32 
L 364.32 324 
Q 364.32 316.8 357.12 316.8 
L 82.08 316.8 
Q 74.88 316.8 74.88 324 
L 74.88 364.32 
Q 74.88 371.52 82.08 371.52 
z
" clip-path="url(#pf45f0dfc8e)" style="fill: #e2f0d9; stroke: #538135; stroke-width: 1.4; stroke-linejoin: miter"/>
   </g>
   <g id="patch_9">
    <path d="M 377.28 371.52 
L 652.32 371.52 
Q 659.52 371.52 659.52 364.32 
L 659.52 324 
Q 659.52 316.8 652.32 316.8 
L 377.28 316.8 
Q 370.08 316.8 370.08 324 
L 370.08 364.32 
Q 370.08 371.52 377.28 371.52 
z
" clip-path="url(#pf45f0dfc8e)" style="fill: #e2f0d9; stroke: #538135; stroke-width: 1.4; stroke-linejoin: miter"/>
   </g>
   <g id="patch_10">
    <path d="M 82.08 296.64 
L 241.92 296.64 
Q 249.12 296.64 249.12 289.44 
L 249.12 259.2 
Q 249.12 252 241.92 252 
L 82.08 252 
Q 74.88 252 74.88 259.2 
L 74.88 289.44 
Q 74.88 296.64 82.08 296.64 
z
" clip-path="url(#pf45f0dfc8e)" style="fill: #deebf7; stroke: #2f5597; stroke-width: 1.4; stroke-linejoin: miter"/>
   </g>
   <g id="patch_11">
    <path d="M 287.28 296.64 
L 447.12 296.64 
Q 454.32 296.64 454.32 289.44 
L 454.32 259.2 
Q 454.32 252 447.12 252 
L 287.28 252 
Q 280.08 252 280.08 259.2 
L 280.08 289.44 
Q 280.08 296.64 287.28 296.64 
z
" clip-path="url(#pf45f0dfc8e)" style="fill: #fff2cc; stroke: #bf8f00; stroke-width: 1.4; stroke-linejoin: miter"/>
   </g>
   <g id="patch_12">
    <path d="M 492.48 296.64 
L 652.32 296.64 
Q 659.52 296.64 659.52 289.44 
L 659.52 259.2 
Q 659.52 252 652.32 252 
L 492.48 252 
Q 485.28 252 485.28 259.2 
L 485.28 289.44 
Q 485.28 296.64 492.48 296.64 
z
" clip-path="url(#pf45f0dfc8e)" style="fill: #fff2cc; stroke: #bf8f00; stroke-width: 1.4; stroke-linejoin: miter"/>
   </g>
   <g id="patch_13">
    <path d="M 82.08 231.84 
L 357.12 231.84 
Q 364.32 231.84 364.32 224.64 
L 364.32 191.52 
Q 364.32 184.32 357.12 184.32 
L 82.08 184.32 
Q 74.88 184.32 74.88 191.52 
L 74.88 224.64 
Q 74.88 231.84 82.08 231.84 
z
" clip-path="url(#pf45f0dfc8e)" style="fill: #e4dfec; stroke: #5b3e96; stroke-width: 1.4; stroke-linejoin: miter"/>
   </g>
   <g id="patch_14">
    <path d="M 377.28 231.84 
L 652.32 231.84 
Q 659.52 231.84 659.52 224.64 
L 659.52 191.52 
Q 659.52 184.32 652.32 184.32 
L 377.28 184.32 
Q 370.08 184.32 370.08 191.52 
L 370.08 224.64 
Q 370.08 231.84 377.28 231.84 
z
" clip-path="url(#pf45f0dfc8e)" style="fill: #e4dfec; stroke: #5b3e96; stroke-width: 1.4; stroke-linejoin: miter"/>
   </g>
   <g id="patch_15">
    <path d="M 124.390942 460.577483 
Q 244.800686 447.119923 363.543756 433.848639 
" clip-path="url(#pf45f0dfc8e)" style="fill: none; stroke: #2f5597; stroke-width: 1.5; stroke-linecap: round"/>
    <path d="M 355.988445 431.070642 
L 363.543756 433.848639 
L 356.788171 438.22609 
z
" clip-path="url(#pf45f0dfc8e)" style="fill: #2f5597; stroke: #2f5597; stroke-width: 1.5; stroke-linecap: round"/>
   </g>
   <g id="patch_16">
    <path d="M 246.753589 460.363315 
Q 306.000887 447.119802 363.611525 434.24213 
" clip-path="url(#pf45f0dfc8e)" style="fill: none; stroke: #2f5597; stroke-width: 1.5; stroke-linecap: round"/>
    <path d="M 355.799603 432.299483 
L 363.611525 434.24213 
L 357.370254 439.326079 
z
" clip-path="url(#pf45f0dfc8e)" style="fill: #2f5597; stroke: #2f5597; stroke-width: 1.5; stroke-linecap: round"/>
   </g>
   <g id="patch_17">
    <path d="M 367.2 458.799434 
Q 367.2 447.121154 367.2 437.119926 
" clip-path="url(#pf45f0dfc8e)" style="fill: none; stroke: #2f5597; stroke-width: 1.5; stroke-linecap: round"/>
    <path d="M 363.6 444.319926 
L 367.2 437.119926 
L 370.8 444.319926 
z
" clip-path="url(#pf45f0dfc8e)" style="fill: #2f5597; stroke: #2f5597; stroke-width: 1.5; stroke-linecap: round"/>
   </g>
   <g id="patch_18">
    <path d="M 487.646411 460.363315 
Q 428.399113 447.119802 370.788475 434.24213 
" clip-path="url(#pf45f0dfc8e)" style="fill: none; stroke: #2f5597; stroke-width: 1.5; stroke-linecap: round"/>
    <path d="M 377.029746 439.326079 
L 370.788475 434.24213 
L 378.600397 432.299483 
z
" clip-path="url(#pf45f0dfc8e)" style="fill: #2f5597; stroke: #2f5597; stroke-width: 1.5; stroke-linecap: round"/>
   </g>
   <g id="patch_19">
    <path d="M 610.009058 460.577483 
Q 489.599314 447.119923 370.856244 433.848639 
" clip-path="url(#pf45f0dfc8e)" style="fill: none; stroke: #2f5597; stroke-width: 1.5; stroke-linecap: round"/>
    <path d="M 377.611829 438.22609 
L 370.856244 433.848639 
L 378.411555 431.070642 
z
" clip-path="url(#pf45f0dfc8e)" style="fill: #2f5597; stroke: #2f5597; stroke-width: 1.5; stroke-linecap: round"/>
   </g>
   <g id="patch_20">
    <path d="M 365.23158 394.195122 
Q 293.400207 380.880038 223.217796 367.870616 
" clip-path="url(#pf45f0dfc8e)" style="fill: none; stroke: #2f5597; stroke-width: 1.5; stroke-linecap: round"/>
    <path d="M 229.641058 372.722596 
L 223.217796 367.870616 
L 230.953337 365.643194 
z
" clip-path="url(#pf45f0dfc8e)" style="fill: #2f5597; stroke: #2f5597; stroke-width: 1.5; stroke-linecap: round"/>
   </g>
   <g id="patch_21">
    <path d="M 369.16842 394.195122 
Q 440.999793 380.880038 511.182204 367.870616 
" clip-path="url(#pf45f0dfc8e)" style="fill: none; stroke: #2f5597; stroke-width: 1.5; stroke-linecap: round"/>
    <path d="M 503.446663 365.643194 
L 511.182204 367.870616 
L 504.758942 372.722596 
z
" clip-path="url(#pf45f0dfc8e)" style="fill: #2f5597; stroke: #2f5597; stroke-width: 1.5; stroke-linecap: round"/>
   </g>
   <g id="patch_22">
    <path d="M 217.810547 320.225273 
Q 190.799455 306.719727 165.288363 293.964181 
" clip-path="url(#pf45f0dfc8e)" style="fill: none; stroke: #2f5597; stroke-width: 1.5; stroke-linecap: round"/>
    <path d="M 170.11827 300.404057 
L 165.288363 293.964181 
L 173.338208 293.964181 
z
" clip-path="url(#pf45f0dfc8e)" style="fill: #2f5597; stroke: #2f5597; stroke-width: 1.5; stroke-linecap: round"/>
   </g>
   <g id="patch_23">
    <path d="M 512.805487 320.957183 
Q 338.399715 306.719977 165.665434 292.619219 
" clip-path="url(#pf45f0dfc8e)" style="fill: none; stroke: #2f5597; stroke-width: 1.5; stroke-linecap: round"/>
    <path d="M 172.54866 296.79309 
L 165.665434 292.619219 
L 173.134466 289.616961 
z
" clip-path="url(#pf45f0dfc8e)" style="fill: #2f5597; stroke: #2f5597; stroke-width: 1.5; stroke-linecap: round"/>
   </g>
   <g id="patch_24">
    <path d="M 163.969464 256.66552 
Q 264.600148 274.320026 363.579009 291.684738 
" clip-path="url(#pf45f0dfc8e)" style="fill: none; stroke: #2f5597; stroke-width: 1.5; stroke-linecap: round"/>
    <path d="M 357.109396 286.894737 
L 363.579009 291.684738 
L 355.86524 293.986427 
z
" clip-path="url(#pf45f0dfc8e)" style="fill: #2f5597; stroke: #2f5597; stroke-width: 1.5; stroke-linecap: round"/>
   </g>
   <g id="patch_25">
    <path d="M 369.169464 256.66552 
Q 469.800148 274.320026 568.779009 291.684738 
" clip-path="url(#pf45f0dfc8e)" style="fill: none; stroke: #2f5597; stroke-width: 1.5; stroke-linecap: round"/>
    <path d="M 562.309396 286.894737 
L 568.779009 291.684738 
L 561.06524 293.986427 
z
" clip-path="url(#pf45f0dfc8e)" style="fill: #2f5597; stroke: #2f5597; stroke-width: 1.5; stroke-linecap: round"/>
   </g>
   <g id="patch_26">
    <path d="M 570.405487 256.157183 
Q 395.999715 241.919977 223.265434 227.819219 
" clip-path="url(#pf45f0dfc8e)" style="fill: none; stroke: #2f5597; stroke-width: 1.5; stroke-linecap: round"/>
    <path d="M 230.14866 231.99309 
L 223.265434 227.819219 
L 230.734466 224.816961 
z
" clip-path="url(#pf45f0dfc8e)" style="fill: #2f5597; stroke: #2f5597; stroke-width: 1.5; stroke-linecap: round"/>
   </g>
   <g id="patch_27">
    <path d="M 221.586438 188.901628 
Q 367.202209 208.080291 511.155289 227.039965 
" clip-path="url(#pf45f0dfc8e)" style="fill: none; stroke: #2f5597; stroke-width: 1.5; stroke-linecap: round"/>
    <path d="M 504.487023 222.530615 
L 511.155289 227.039965 
L 503.54685 229.668968 
z
" clip-path="url(#pf45f0dfc8e)" style="fill: #2f5597; stroke: #2f5597; stroke-width: 1.5; stroke-linecap: round"/>
   </g>
   <g id="patch_28">
    <path d="M 655.2 208.08 
L 662.4 208.08 
L 662.4 414 
L 656.765248 414 
" clip-path="url(#pf45f0dfc8e)" style="fill: none; stroke-dasharray: 5.6,4.2; stroke-dashoffset: 0; stroke: #7f6000; stroke-width: 1.4; stroke-linecap: round"/>
    <path d="M 663.965248 417.6 
L 656.765248 414 
L 663.965248 410.4 
z
" clip-path="url(#pf45f0dfc8e)" style="fill: #7f6000; stroke-dasharray: 5.6,4.2; stroke-dashoffset: 0; stroke: #7f6000; stroke-width: 1.4; stroke-linecap: round"/>
   </g>
   <g id="text_1">
    <text style="font-size: 12px; font-family: 'KaiTi', 'Arial', 'DejaVu Sans'; fill: #1f1f1f" transform="translate(86.4 473.671875)">数据内容证据</text>
    <text style="font-size: 12px; font-family: 'KaiTi', 'Arial', 'DejaVu Sans'; fill: #1f1f1f" transform="translate(86.4 492.225)">（全量剖析）</text>
   </g>
   <g id="text_2">
    <text style="font-size: 12px; font-family: 'KaiTi', 'Arial', 'DejaVu Sans'; fill: #1f1f1f" transform="translate(202.8 473.742188)">结构元数据证据</text>
    <text style="font-size: 12px; font-family: 'KaiTi', 'Arial', 'DejaVu Sans'; fill: #1f1f1f" transform="translate(208.8 492.248437)">（DDL/约束）</text>
   </g>
   <g id="text_3">
    <text style="font-size: 12px; font-family: 'KaiTi', 'Arial', 'DejaVu Sans'; fill: #1f1f1f" transform="translate(331.2 473.742188)">规则标准证据</text>
    <text style="font-size: 12px; font-family: 'KaiTi', 'Arial', 'DejaVu Sans'; fill: #1f1f1f" transform="translate(328.2 492.365625)">（标准/制度）</text>
   </g>
   <g id="text_4">
    <text style="font-size: 12px; font-family: 'KaiTi', 'Arial', 'DejaVu Sans'; fill: #1f1f1f" transform="translate(453.6 473.71875)">运行过程证据</text>
    <text style="font-size: 12px; font-family: 'KaiTi', 'Arial', 'DejaVu Sans'; fill: #1f1f1f" transform="translate(444.6 492.482812)">（日志/问题单）</text>
   </g>
   <g id="text_5">
    <text style="font-size: 12px; font-family: 'KaiTi', 'Arial', 'DejaVu Sans'; fill: #1f1f1f" transform="translate(576 473.71875)">专家判断证据</text>
    <text style="font-size: 12px; font-family: 'KaiTi', 'Arial', 'DejaVu Sans'; fill: #1f1f1f" transform="translate(588 492.201562)">（评审）</text>
   </g>
   <g id="text_6">
    <text style="font-size: 12px; font-family: 'KaiTi', 'Arial', 'DejaVu Sans'; fill: #1f1f1f" transform="translate(295.2 408.942187)">证据可靠性折扣与 ER 融合</text>
    <text style="font-size: 12px; font-family: 'KaiTi', 'Arial', 'DejaVu Sans'; fill: #1f1f1f" transform="translate(268.2 427.542187)">（未知度、冲突度显式保留，式1~4）</text>
   </g>
   <g id="text_7">
    <text style="font-size: 12px; font-family: 'KaiTi', 'Arial', 'DejaVu Sans'; fill: #1f1f1f" transform="translate(183.6 339.055313)">数据质量域 Q</text>
    <text style="font-size: 12px; font-family: 'KaiTi', 'Arial', 'DejaVu Sans'; fill: #1f1f1f" transform="translate(162.6 357.842813)">结果状态（DQ1~DQ8）</text>
   </g>
   <g id="text_8">
    <text style="font-size: 12px; font-family: 'KaiTi', 'Arial', 'DejaVu Sans'; fill: #1f1f1f" transform="translate(478.8 339.102188)">结构治理域 S</text>
    <text style="font-size: 12px; font-family: 'KaiTi', 'Arial', 'DejaVu Sans'; fill: #1f1f1f" transform="translate(439.8 357.936563)">成因与持续控制（SG1~SG8）</text>
   </g>
   <g id="text_9">
    <text style="font-size: 12px; font-family: 'KaiTi', 'Arial', 'DejaVu Sans'; fill: #1f1f1f" transform="translate(129 268.980937)">双域聚合 G0</text>
    <text style="font-size: 12px; font-family: 'KaiTi', 'Arial', 'DejaVu Sans'; fill: #1f1f1f" transform="translate(132 287.909063)">（式7、8）</text>
   </g>
   <g id="text_10">
    <text style="font-size: 12px; font-family: 'KaiTi', 'Arial', 'DejaVu Sans'; fill: #1f1f1f" transform="translate(325.2 269.262187)">非补偿底线限级</text>
    <text style="font-size: 12px; font-family: 'KaiTi', 'Arial', 'DejaVu Sans'; fill: #1f1f1f" transform="translate(346.2 287.909063)">（式9）</text>
   </g>
   <g id="text_11">
    <text style="font-size: 12px; font-family: 'KaiTi', 'Arial', 'DejaVu Sans'; text-anchor: middle; fill: #1f1f1f" x="572.4" y="278.53875" transform="rotate(-0 572.4 278.53875)">总体等级与证据覆盖率</text>
   </g>
   <g id="text_12">
    <text style="font-size: 12px; font-family: 'KaiTi', 'Arial', 'DejaVu Sans'; fill: #1f1f1f" transform="translate(171.6 202.928437)">Q-S 耦合根因排序</text>
    <text style="font-size: 12px; font-family: 'KaiTi', 'Arial', 'DejaVu Sans'; fill: #1f1f1f" transform="translate(156.6 221.622187)">（三源校准，式10~13）</text>
   </g>
   <g id="text_13">
    <text style="font-size: 12px; font-family: 'KaiTi', 'Arial', 'DejaVu Sans'; fill: #1f1f1f" transform="translate(460.8 202.928437)">治理任务与复评闭环</text>
    <text style="font-size: 12px; font-family: 'KaiTi', 'Arial', 'DejaVu Sans'; fill: #1f1f1f" transform="translate(445.8 221.575312)">（对象/责任/措施/验收）</text>
   </g>
   <g id="text_14">
    <text style="font-size: 10px; font-family: 'KaiTi', 'Arial', 'DejaVu Sans'; fill: #7f6000" transform="translate(674.63375 391.04) rotate(-90)">复评：重新采集证据，反向校准参数</text>
   </g>
  </g>
 </g>
 <defs>
  <clipPath id="pf45f0dfc8e">
   <rect x="7.2" y="7.2" width="720" height="504"/>
  </clipPath>
 </defs>
</svg>
